<mxfile host="Electron" agent="Mozilla/5.0 (Windows NT 10.0; Win64; x64) AppleWebKit/537.36 (KHTML, like Gecko) draw.io/24.7.8 Chrome/128.0.6613.36 Electron/32.0.1 Safari/537.36" version="24.7.8">
  <diagram name="Seite-1" id="bCZiDCnM7J5lXeWy_a7V">
    <mxGraphModel dx="1674" dy="836" grid="1" gridSize="10" guides="1" tooltips="1" connect="1" arrows="1" fold="1" page="1" pageScale="1" pageWidth="827" pageHeight="1169" math="0" shadow="0">
      <root>
        <mxCell id="0" />
        <mxCell id="1" parent="0" />
        <mxCell id="5pXNP9bQgQZQvyG1nr_C-1" style="edgeStyle=orthogonalEdgeStyle;rounded=0;orthogonalLoop=1;jettySize=auto;html=1;exitX=1;exitY=0.5;exitDx=0;exitDy=0;entryX=0;entryY=0.5;entryDx=0;entryDy=0;" parent="1" source="5pXNP9bQgQZQvyG1nr_C-2" target="5pXNP9bQgQZQvyG1nr_C-10" edge="1">
          <mxGeometry relative="1" as="geometry" />
        </mxCell>
        <mxCell id="5pXNP9bQgQZQvyG1nr_C-2" value="" style="ellipse;whiteSpace=wrap;html=1;aspect=fixed;fillColor=#000000;" parent="1" vertex="1">
          <mxGeometry x="40" y="240" width="40" height="40" as="geometry" />
        </mxCell>
        <mxCell id="5pXNP9bQgQZQvyG1nr_C-10" value="FirstRoll" style="rounded=1;whiteSpace=wrap;html=1;" parent="1" vertex="1">
          <mxGeometry x="120" y="230" width="120" height="60" as="geometry" />
        </mxCell>
        <mxCell id="5pXNP9bQgQZQvyG1nr_C-35" value="RollDice" style="shape=umlFrame;whiteSpace=wrap;html=1;pointerEvents=0;recursiveResize=0;container=1;collapsible=0;width=160;" parent="1" vertex="1">
          <mxGeometry x="20" y="180" width="1140" height="520" as="geometry" />
        </mxCell>
        <mxCell id="5pXNP9bQgQZQvyG1nr_C-3" value="" style="group" parent="5pXNP9bQgQZQvyG1nr_C-35" vertex="1" connectable="0">
          <mxGeometry x="1000" y="60" width="40" height="40" as="geometry" />
        </mxCell>
        <mxCell id="5pXNP9bQgQZQvyG1nr_C-4" value="" style="ellipse;whiteSpace=wrap;html=1;aspect=fixed;" parent="5pXNP9bQgQZQvyG1nr_C-3" vertex="1">
          <mxGeometry width="40" height="40" as="geometry" />
        </mxCell>
        <mxCell id="5pXNP9bQgQZQvyG1nr_C-5" value="" style="ellipse;whiteSpace=wrap;html=1;aspect=fixed;fillColor=#000000;" parent="5pXNP9bQgQZQvyG1nr_C-3" vertex="1">
          <mxGeometry x="6.4099999999998545" y="6.409999999999968" width="27.18" height="27.18" as="geometry" />
        </mxCell>
        <mxCell id="5pXNP9bQgQZQvyG1nr_C-6" style="edgeStyle=orthogonalEdgeStyle;rounded=0;orthogonalLoop=1;jettySize=auto;html=1;exitX=1;exitY=0.5;exitDx=0;exitDy=0;entryX=0;entryY=0.5;entryDx=0;entryDy=0;" parent="5pXNP9bQgQZQvyG1nr_C-35" source="5pXNP9bQgQZQvyG1nr_C-8" target="5pXNP9bQgQZQvyG1nr_C-4" edge="1">
          <mxGeometry relative="1" as="geometry">
            <mxPoint x="850" y="80" as="targetPoint" />
          </mxGeometry>
        </mxCell>
        <mxCell id="5pXNP9bQgQZQvyG1nr_C-7" style="edgeStyle=orthogonalEdgeStyle;rounded=0;orthogonalLoop=1;jettySize=auto;html=1;exitX=0.5;exitY=1;exitDx=0;exitDy=0;entryX=0.5;entryY=0;entryDx=0;entryDy=0;" parent="5pXNP9bQgQZQvyG1nr_C-35" source="5pXNP9bQgQZQvyG1nr_C-8" target="5pXNP9bQgQZQvyG1nr_C-15" edge="1">
          <mxGeometry relative="1" as="geometry" />
        </mxCell>
        <mxCell id="5pXNP9bQgQZQvyG1nr_C-8" value="" style="rhombus;whiteSpace=wrap;html=1;" parent="5pXNP9bQgQZQvyG1nr_C-35" vertex="1">
          <mxGeometry x="380" y="65" width="60" height="30" as="geometry" />
        </mxCell>
        <mxCell id="5pXNP9bQgQZQvyG1nr_C-12" value="[player.hasMovablePieces()]/sendDice(roll,player)" style="text;html=1;align=center;verticalAlign=middle;resizable=0;points=[];autosize=1;strokeColor=none;fillColor=none;" parent="5pXNP9bQgQZQvyG1nr_C-35" vertex="1">
          <mxGeometry x="405" y="50" width="290" height="30" as="geometry" />
        </mxCell>
        <mxCell id="5pXNP9bQgQZQvyG1nr_C-13" style="edgeStyle=orthogonalEdgeStyle;rounded=0;orthogonalLoop=1;jettySize=auto;html=1;exitX=1;exitY=0.5;exitDx=0;exitDy=0;entryX=0.5;entryY=1;entryDx=0;entryDy=0;" parent="5pXNP9bQgQZQvyG1nr_C-35" source="5pXNP9bQgQZQvyG1nr_C-15" target="5pXNP9bQgQZQvyG1nr_C-4" edge="1">
          <mxGeometry relative="1" as="geometry" />
        </mxCell>
        <mxCell id="5pXNP9bQgQZQvyG1nr_C-14" style="edgeStyle=orthogonalEdgeStyle;rounded=0;orthogonalLoop=1;jettySize=auto;html=1;exitX=0.5;exitY=1;exitDx=0;exitDy=0;entryX=0.5;entryY=0;entryDx=0;entryDy=0;" parent="5pXNP9bQgQZQvyG1nr_C-35" source="5pXNP9bQgQZQvyG1nr_C-15" target="5pXNP9bQgQZQvyG1nr_C-18" edge="1">
          <mxGeometry relative="1" as="geometry" />
        </mxCell>
        <mxCell id="5pXNP9bQgQZQvyG1nr_C-15" value="" style="rhombus;whiteSpace=wrap;html=1;" parent="5pXNP9bQgQZQvyG1nr_C-35" vertex="1">
          <mxGeometry x="380" y="160" width="60" height="30" as="geometry" />
        </mxCell>
        <mxCell id="5pXNP9bQgQZQvyG1nr_C-16" value="[roll=6]/sendDice(6,player)" style="text;html=1;align=center;verticalAlign=middle;resizable=0;points=[];autosize=1;strokeColor=none;fillColor=none;" parent="5pXNP9bQgQZQvyG1nr_C-35" vertex="1">
          <mxGeometry x="440" y="140" width="160" height="30" as="geometry" />
        </mxCell>
        <mxCell id="5pXNP9bQgQZQvyG1nr_C-17" style="edgeStyle=orthogonalEdgeStyle;rounded=0;orthogonalLoop=1;jettySize=auto;html=1;exitX=1;exitY=0.5;exitDx=0;exitDy=0;entryX=0;entryY=0.5;entryDx=0;entryDy=0;" parent="5pXNP9bQgQZQvyG1nr_C-35" source="5pXNP9bQgQZQvyG1nr_C-18" target="5pXNP9bQgQZQvyG1nr_C-21" edge="1">
          <mxGeometry relative="1" as="geometry" />
        </mxCell>
        <mxCell id="5pXNP9bQgQZQvyG1nr_C-18" value="SecondRoll" style="rounded=1;whiteSpace=wrap;html=1;" parent="5pXNP9bQgQZQvyG1nr_C-35" vertex="1">
          <mxGeometry x="350" y="270" width="120" height="60" as="geometry" />
        </mxCell>
        <mxCell id="5pXNP9bQgQZQvyG1nr_C-19" value="[else]/sendDiceAgain(msg)" style="text;html=1;align=center;verticalAlign=middle;resizable=0;points=[];autosize=1;strokeColor=none;fillColor=none;" parent="5pXNP9bQgQZQvyG1nr_C-35" vertex="1">
          <mxGeometry x="405" y="200" width="170" height="30" as="geometry" />
        </mxCell>
        <mxCell id="5pXNP9bQgQZQvyG1nr_C-20" style="edgeStyle=orthogonalEdgeStyle;rounded=0;orthogonalLoop=1;jettySize=auto;html=1;exitX=0.5;exitY=1;exitDx=0;exitDy=0;entryX=0.5;entryY=0;entryDx=0;entryDy=0;" parent="5pXNP9bQgQZQvyG1nr_C-35" source="5pXNP9bQgQZQvyG1nr_C-21" target="5pXNP9bQgQZQvyG1nr_C-26" edge="1">
          <mxGeometry relative="1" as="geometry" />
        </mxCell>
        <mxCell id="5pXNP9bQgQZQvyG1nr_C-21" value="" style="rhombus;whiteSpace=wrap;html=1;" parent="5pXNP9bQgQZQvyG1nr_C-35" vertex="1">
          <mxGeometry x="620" y="285" width="60" height="30" as="geometry" />
        </mxCell>
        <mxCell id="5pXNP9bQgQZQvyG1nr_C-23" style="edgeStyle=orthogonalEdgeStyle;rounded=0;orthogonalLoop=1;jettySize=auto;html=1;exitX=1;exitY=0.5;exitDx=0;exitDy=0;entryX=0.5;entryY=1;entryDx=0;entryDy=0;" parent="5pXNP9bQgQZQvyG1nr_C-35" source="5pXNP9bQgQZQvyG1nr_C-21" target="5pXNP9bQgQZQvyG1nr_C-4" edge="1">
          <mxGeometry relative="1" as="geometry" />
        </mxCell>
        <mxCell id="5pXNP9bQgQZQvyG1nr_C-24" value="[roll==6]/sendDice(6,player)" style="text;html=1;align=center;verticalAlign=middle;resizable=0;points=[];autosize=1;strokeColor=none;fillColor=none;" parent="5pXNP9bQgQZQvyG1nr_C-35" vertex="1">
          <mxGeometry x="680" y="270" width="170" height="30" as="geometry" />
        </mxCell>
        <mxCell id="5pXNP9bQgQZQvyG1nr_C-25" style="edgeStyle=orthogonalEdgeStyle;rounded=0;orthogonalLoop=1;jettySize=auto;html=1;exitX=1;exitY=0.5;exitDx=0;exitDy=0;entryX=0;entryY=0.5;entryDx=0;entryDy=0;" parent="5pXNP9bQgQZQvyG1nr_C-35" source="5pXNP9bQgQZQvyG1nr_C-26" target="5pXNP9bQgQZQvyG1nr_C-29" edge="1">
          <mxGeometry relative="1" as="geometry" />
        </mxCell>
        <mxCell id="5pXNP9bQgQZQvyG1nr_C-26" value="ThirdRoll" style="rounded=1;whiteSpace=wrap;html=1;" parent="5pXNP9bQgQZQvyG1nr_C-35" vertex="1">
          <mxGeometry x="590" y="400" width="120" height="60" as="geometry" />
        </mxCell>
        <mxCell id="5pXNP9bQgQZQvyG1nr_C-27" style="edgeStyle=orthogonalEdgeStyle;rounded=0;orthogonalLoop=1;jettySize=auto;html=1;exitX=1;exitY=0.5;exitDx=0;exitDy=0;entryX=0.5;entryY=1;entryDx=0;entryDy=0;" parent="5pXNP9bQgQZQvyG1nr_C-35" source="5pXNP9bQgQZQvyG1nr_C-29" target="5pXNP9bQgQZQvyG1nr_C-4" edge="1">
          <mxGeometry relative="1" as="geometry" />
        </mxCell>
        <mxCell id="5pXNP9bQgQZQvyG1nr_C-28" style="edgeStyle=orthogonalEdgeStyle;rounded=0;orthogonalLoop=1;jettySize=auto;html=1;exitX=0.5;exitY=1;exitDx=0;exitDy=0;entryX=0.5;entryY=1;entryDx=0;entryDy=0;" parent="5pXNP9bQgQZQvyG1nr_C-35" source="5pXNP9bQgQZQvyG1nr_C-29" target="5pXNP9bQgQZQvyG1nr_C-4" edge="1">
          <mxGeometry relative="1" as="geometry">
            <Array as="points">
              <mxPoint x="850" y="465" />
              <mxPoint x="1020" y="465" />
            </Array>
          </mxGeometry>
        </mxCell>
        <mxCell id="5pXNP9bQgQZQvyG1nr_C-29" value="" style="rhombus;whiteSpace=wrap;html=1;" parent="5pXNP9bQgQZQvyG1nr_C-35" vertex="1">
          <mxGeometry x="820" y="415" width="60" height="30" as="geometry" />
        </mxCell>
        <mxCell id="5pXNP9bQgQZQvyG1nr_C-31" value="[roll==6]/sendDice(6,player)" style="text;html=1;align=center;verticalAlign=middle;resizable=0;points=[];autosize=1;strokeColor=none;fillColor=none;" parent="5pXNP9bQgQZQvyG1nr_C-35" vertex="1">
          <mxGeometry x="855" y="400" width="170" height="30" as="geometry" />
        </mxCell>
        <mxCell id="5pXNP9bQgQZQvyG1nr_C-32" value="[else]/sendNoTurn(msg), endTurn()" style="text;html=1;align=center;verticalAlign=middle;resizable=0;points=[];autosize=1;strokeColor=none;fillColor=none;" parent="5pXNP9bQgQZQvyG1nr_C-35" vertex="1">
          <mxGeometry x="820" y="468" width="210" height="30" as="geometry" />
        </mxCell>
        <mxCell id="5pXNP9bQgQZQvyG1nr_C-34" value="[else]" style="text;html=1;align=center;verticalAlign=middle;resizable=0;points=[];autosize=1;strokeColor=none;fillColor=none;" parent="5pXNP9bQgQZQvyG1nr_C-35" vertex="1">
          <mxGeometry x="405" y="95" width="50" height="30" as="geometry" />
        </mxCell>
        <mxCell id="5pXNP9bQgQZQvyG1nr_C-11" value="receiveRequestDice(msg)" style="text;html=1;align=center;verticalAlign=middle;resizable=0;points=[];autosize=1;strokeColor=none;fillColor=none;" parent="5pXNP9bQgQZQvyG1nr_C-35" vertex="1">
          <mxGeometry x="220" y="50" width="160" height="30" as="geometry" />
        </mxCell>
        <mxCell id="5pXNP9bQgQZQvyG1nr_C-36" value="receiveRequestDice(msg)" style="text;html=1;align=center;verticalAlign=middle;resizable=0;points=[];autosize=1;strokeColor=none;fillColor=none;" parent="5pXNP9bQgQZQvyG1nr_C-35" vertex="1">
          <mxGeometry x="470" y="270" width="160" height="30" as="geometry" />
        </mxCell>
        <mxCell id="5pXNP9bQgQZQvyG1nr_C-69" value="receiveRequestDice(msg)" style="text;html=1;align=center;verticalAlign=middle;resizable=0;points=[];autosize=1;strokeColor=none;fillColor=none;" parent="5pXNP9bQgQZQvyG1nr_C-35" vertex="1">
          <mxGeometry x="710" y="390" width="160" height="30" as="geometry" />
        </mxCell>
        <mxCell id="5pXNP9bQgQZQvyG1nr_C-71" value="[else]/sendDiceAgain(msg)" style="text;html=1;align=center;verticalAlign=middle;resizable=0;points=[];autosize=1;strokeColor=none;fillColor=none;" parent="5pXNP9bQgQZQvyG1nr_C-35" vertex="1">
          <mxGeometry x="637" y="315" width="170" height="30" as="geometry" />
        </mxCell>
        <mxCell id="5pXNP9bQgQZQvyG1nr_C-9" style="edgeStyle=orthogonalEdgeStyle;rounded=0;orthogonalLoop=1;jettySize=auto;html=1;exitX=1;exitY=0.5;exitDx=0;exitDy=0;entryX=0;entryY=0.5;entryDx=0;entryDy=0;" parent="1" source="5pXNP9bQgQZQvyG1nr_C-10" target="5pXNP9bQgQZQvyG1nr_C-8" edge="1">
          <mxGeometry relative="1" as="geometry">
            <mxPoint x="320" y="259.9999999999999" as="sourcePoint" />
          </mxGeometry>
        </mxCell>
      </root>
    </mxGraphModel>
  </diagram>
</mxfile>
